<svg xmlns="http://www.w3.org/2000/svg" width="888" height="200" viewBox="0 0 888 200">
  <path fill="none" d="M180.764 153.48h526.471v46.039H180.764z"/>
  <path fill="#6FBAD0" d="M204.327 187.48c-.36.27-.81.359-1.215.359-.72 0-1.44-.359-1.89-1.035l-14.714-21.148v19.979c0 1.215-.99 2.205-2.205 2.205s-2.25-.99-2.25-2.205v-27.043c-.09-.855.27-1.711 1.035-2.205a2.214 2.214 0 0 1 3.105.676l14.669 21.779v-20.564c0-1.26 1.035-2.25 2.25-2.25s2.205.99 2.205 2.25v26.998a2.19 2.19 0 0 1-.99 2.204zm3.51-11.025c0-6.254 5.085-11.293 11.294-11.293a11.271 11.271 0 0 1 11.294 11.293c0 6.211-5.04 11.295-11.294 11.295-6.209 0-11.294-5.084-11.294-11.295zm4.455 0c0 3.736 3.06 6.84 6.839 6.84s6.84-3.104 6.84-6.84c0-3.779-3.06-6.838-6.84-6.838s-6.839 3.059-6.839 6.838zm34.333-9.043c0 1.215-.99 2.25-2.25 2.25a6.835 6.835 0 0 0-6.839 6.838v9.045c0 1.215-.99 2.25-2.205 2.25a2.257 2.257 0 0 1-2.25-2.25V176.5c0-6.254 5.085-11.293 11.294-11.293 1.261 0 2.25.99 2.25 2.205zm18.045 0c0 1.215-.99 2.25-2.25 2.25h-3.195v15.883c0 1.215-.99 2.25-2.25 2.25-1.215 0-2.205-1.035-2.205-2.25v-15.883h-3.24c-1.215 0-2.205-1.035-2.205-2.25s.99-2.205 2.205-2.205h3.24v-9c0-1.215.99-2.205 2.205-2.205 1.26 0 2.25.99 2.25 2.205v9h3.195c1.26 0 2.25.99 2.25 2.205zm22.589 7.649V185.5c0 1.26-1.035 2.25-2.25 2.25s-2.205-.99-2.205-2.25v-10.439c0-3.014-2.475-5.443-5.49-5.443a5.435 5.435 0 0 0-5.445 5.443V185.5c0 1.26-.99 2.25-2.25 2.25-1.215 0-2.205-.99-2.205-2.25v-29.293c0-1.215.99-2.205 2.205-2.205 1.26 0 2.25.99 2.25 2.205v10.574a9.808 9.808 0 0 1 5.445-1.619c5.49 0 9.945 4.455 9.945 9.899zm25.244 1.394c0 1.215-.99 2.205-2.25 2.205h-15.524c.945 2.701 3.465 4.635 6.479 4.635 1.035 0 2.88-.09 5.04-1.484 1.035-.674 2.43-.045 2.97 1.035.54 1.125-.045 2.295-1.08 2.971-2.97 1.979-5.265 1.934-6.93 1.934-6.255 0-11.294-5.084-11.294-11.295 0-6.254 5.04-11.293 11.294-11.293 5.445-.001 11.295 3.958 11.295 11.292zm-17.774-2.25h13.004c-.945-3.148-3.825-4.588-6.525-4.588-3.014 0-5.534 1.934-6.479 4.588zm52.152.227c.045.09.045.135.045.225v10.934c0 1.26-1.034 2.25-2.249 2.25-1.216 0-2.205-.99-2.205-2.25v-11.339c0-2.521-2.07-4.545-4.59-4.545-2.521 0-4.59 2.023-4.59 4.545v11.338c0 1.26-.99 2.25-2.205 2.25s-2.25-.99-2.25-2.25v-11.338a4.531 4.531 0 0 0-4.545-4.545c-2.52 0-4.59 2.023-4.59 4.545v11.338c0 1.26-.99 2.25-2.205 2.25-1.26 0-2.25-.99-2.25-2.25v-11.338c0-4.951 4.05-9 9.045-9 2.7 0 5.13 1.17 6.795 3.104a8.906 8.906 0 0 1 6.795-3.104c4.994 0 9.044 4.049 9.044 9 0 .09 0 .135-.045.18zm36.857 11.068c0 1.26-1.034 2.25-2.25 2.25h-15.659c-1.26 0-2.25-.99-2.25-2.25v-26.908c0-1.26.99-2.25 2.25-2.25 1.215 0 2.25.99 2.25 2.25v24.658h13.409c1.216 0 2.25.99 2.25 2.25zm3.421-25.424c-.405-.404-.676-.99-.676-1.574 0-.586.271-1.17.676-1.576.404-.404.989-.674 1.574-.674s1.17.27 1.575.674c.405.406.63.99.63 1.576 0 .584-.225 1.17-.63 1.574-.405.406-.99.631-1.575.631s-1.17-.225-1.574-.631zm-.676 25.469v-18.133c0-1.215.99-2.205 2.25-2.205 1.215 0 2.205.99 2.205 2.205v18.133c0 1.26-.99 2.25-2.205 2.25-1.26 0-2.25-.99-2.25-2.25zm29.609 2.205c0 6.211-5.085 11.295-11.294 11.295-4.365 0-8.235-2.43-10.17-6.344-.54-1.125-.09-2.432 1.035-2.971a2.232 2.232 0 0 1 2.97.99c1.17 2.385 3.51 3.869 6.165 3.869 3.734 0 6.749-3.014 6.84-6.705v-2.475c-1.936 1.439-4.275 2.34-6.84 2.34-6.255 0-11.295-5.084-11.295-11.295 0-6.254 5.04-11.293 11.295-11.293 6.209 0 11.294 5.039 11.294 11.293v11.296zm-4.454-11.295c0-3.779-3.105-6.838-6.84-6.838a6.836 6.836 0 0 0-6.84 6.838c0 3.736 3.06 6.84 6.84 6.84 3.735 0 6.84-3.104 6.84-6.84zm26.864-1.394V185.5c0 1.26-1.035 2.25-2.25 2.25s-2.205-.99-2.205-2.25v-10.439c0-3.014-2.475-5.443-5.489-5.443a5.434 5.434 0 0 0-5.445 5.443V185.5c0 1.26-.99 2.25-2.25 2.25-1.215 0-2.205-.99-2.205-2.25v-29.293c0-1.215.99-2.205 2.205-2.205 1.26 0 2.25.99 2.25 2.205v10.574a9.808 9.808 0 0 1 5.445-1.619c5.489 0 9.944 4.455 9.944 9.899zm15.706-7.649c0 1.215-.99 2.25-2.25 2.25h-3.195v15.883c0 1.215-.99 2.25-2.25 2.25-1.215 0-2.205-1.035-2.205-2.25v-15.883h-3.239c-1.216 0-2.205-1.035-2.205-2.25s.989-2.205 2.205-2.205h3.239v-9c0-1.215.99-2.205 2.205-2.205 1.26 0 2.25.99 2.25 2.205v9h3.195c1.26 0 2.25.99 2.25 2.205z"/>
  <path fill="#454546" d="M491.198 187.705c-1.035.225-2.432-.27-2.971-1.619l-1.619-4.59h-10.98l-1.891 4.59c-.225 1.035-1.08 1.619-2.158 1.619h-.496c-1.35-.584-1.891-1.889-1.619-2.969l9.629-26.82a2.308 2.308 0 0 1 2.205-1.619c1.08 0 1.846.766 2.115 1.619l9.135 26.82c.494 1.08 0 2.385-1.35 2.969zm-5.941-10.754l-3.959-11.52-4.051 11.52h8.01zm21.105-9.539c0 1.215-.99 2.25-2.25 2.25h-3.195v15.883c0 1.215-.99 2.25-2.25 2.25-1.215 0-2.205-1.035-2.205-2.25v-15.883h-3.238c-1.217 0-2.205-1.035-2.205-2.25s.988-2.205 2.205-2.205h3.238v-9c0-1.215.99-2.205 2.205-2.205 1.26 0 2.25.99 2.25 2.205v9h3.195c1.26 0 2.25.99 2.25 2.205zm-.09 9.043c0-6.254 5.086-11.293 11.295-11.293a11.272 11.272 0 0 1 11.295 11.293c0 6.211-5.039 11.295-11.295 11.295-6.209 0-11.295-5.084-11.295-11.295zm4.456 0c0 3.736 3.061 6.84 6.84 6.84s6.84-3.104 6.84-6.84c0-3.779-3.061-6.838-6.84-6.838s-6.84 3.059-6.84 6.838zm52.334-2.023c.045.09.045.135.045.225v10.934c0 1.26-1.035 2.25-2.25 2.25s-2.205-.99-2.205-2.25v-11.339c0-2.521-2.07-4.545-4.59-4.545s-4.59 2.023-4.59 4.545v11.338c0 1.26-.99 2.25-2.205 2.25s-2.25-.99-2.25-2.25v-11.338a4.53 4.53 0 0 0-4.545-4.545c-2.52 0-4.59 2.023-4.59 4.545v11.338c0 1.26-.99 2.25-2.205 2.25-1.26 0-2.25-.99-2.25-2.25v-11.338c0-4.951 4.051-9 9.045-9a8.903 8.903 0 0 1 6.795 3.104 8.91 8.91 0 0 1 6.795-3.104c4.994 0 9.045 4.049 9.045 9-.001.09-.001.135-.045.18zm37.755 4.273c0 1.215-.631 4.051-2.791 6.166-1.215 1.215-3.51 2.699-7.109 2.699-.09 0-.18 0-.27-.045-2.926-.045-5.4-.811-7.381-2.205-1.664-1.215-2.52-2.52-2.924-3.24a2.378 2.378 0 0 1-.359-1.215c0-1.26 1.035-2.25 2.25-2.25a2.14 2.14 0 0 1 2.023 1.396c.18.27.676 1.033 1.666 1.754 1.26.855 2.879 1.305 4.814 1.35 5.355.09 5.625-4.365 5.625-4.41 0-1.035-.721-2.295-1.756-3.104-1.17-.945-2.789-1.125-4.59-1.35-2.475-.316-5.264-.631-7.559-2.971-2.16-2.25-2.971-5.311-2.025-8.324.945-3.15 3.645-5.625 6.975-6.256.811-.225 1.711-.27 2.699-.27 3.105.045 5.715.9 7.74 2.52 1.666 1.26 2.43 2.701 2.699 3.285.182.314.271.631.271 1.035 0 1.215-.99 2.205-2.205 2.205-.9 0-1.711-.496-2.07-1.35h-.045c0-.045-.314-.811-1.305-1.621-.9-.719-2.564-1.574-5.176-1.619-.629-.045-1.215 0-1.709.135-1.711.359-3.15 1.619-3.645 3.285-.271.811-.451 2.385.99 3.869 1.125 1.125 2.564 1.395 4.904 1.666 2.16.27 4.635.539 6.795 2.25 2.119 1.666 3.468 4.275 3.468 6.615zm21.286-11.158v22.184c0 5.084-4.186 9.27-9.316 9.27-3.555 0-6.748-2.025-8.324-5.221-.539-1.078-.09-2.43 1.035-2.969 1.08-.541 2.43-.045 2.926 1.035.854 1.664 2.52 2.699 4.363 2.699 2.701 0 4.861-2.16 4.861-4.814v-3.24c-1.352.811-2.926 1.26-4.635 1.26-4.951 0-9-4.004-9.045-8.955v-11.248c0-1.215.99-2.205 2.205-2.205s2.205.99 2.205 2.205v11.158c0 2.566 2.113 4.635 4.635 4.635a4.628 4.628 0 0 0 4.635-4.635v-11.158c0-1.215.99-2.205 2.205-2.205 1.259-.001 2.25.989 2.25 2.204zm25.242 8.908v9.045c0 1.26-.988 2.25-2.25 2.25-1.215 0-2.203-.99-2.203-2.25v-9.045a6.837 6.837 0 0 0-6.84-6.838 6.835 6.835 0 0 0-6.84 6.838v9.045c0 1.26-.99 2.25-2.25 2.25-1.215 0-2.205-.99-2.205-2.25v-9.045c0-6.254 5.084-11.293 11.295-11.293 6.209 0 11.293 5.039 11.293 11.293zm15.166-9.043c0 1.215-.988 2.25-2.248 2.25h-3.195v15.883c0 1.215-.99 2.25-2.25 2.25-1.215 0-2.205-1.035-2.205-2.25v-15.883h-3.24c-1.215 0-2.205-1.035-2.205-2.25s.99-2.205 2.205-2.205h3.24v-9c0-1.215.99-2.205 2.205-2.205 1.26 0 2.25.99 2.25 2.205v9h3.195c1.259 0 2.248.99 2.248 2.205zm22.23 9.225v8.818c0 1.305-.945 2.25-2.25 2.25-.9 0-2.16-.945-2.16-2.25-1.936 1.621-4.096 2.25-6.66 2.25-6.344 0-11.385-4.725-11.385-11.068 0-6.346 5.041-11.385 11.385-11.385 6.346 0 11.07 5.039 11.07 11.385zm-4.41 0c0-3.781-2.881-6.975-6.66-6.975s-6.975 3.193-6.975 6.975c0 3.779 3.195 6.658 6.975 6.658s6.66-2.879 6.66-6.658zm25.154 7.513c.766.99.586 2.385-.404 3.105-.406.314-.855.494-1.352.494-.674 0-1.305-.314-1.754-.854l-5.266-6.795-5.264 6.795c-.451.539-1.08.854-1.756.854-.494 0-.945-.18-1.35-.494-.99-.721-1.17-2.115-.404-3.105l5.939-7.695-5.939-7.693a2.23 2.23 0 0 1 .404-3.15c.945-.766 2.34-.584 3.105.404l5.264 6.795 5.266-6.795c.766-.988 2.16-1.17 3.105-.404.99.766 1.17 2.16.404 3.15l-5.939 7.693 5.941 7.695z"/>
  <g fill-rule="evenodd" clip-rule="evenodd" fill="#454546">
    <path d="M444.037 135.955c-18.951-.516-34.582-6.99-47.737-19.621-3.937-3.777-4.499-7.246-.978-11.549 3.068-3.75 5.746-7.814 8.706-11.656 3.61-4.686 5.591-4.625 9.361.117.629.791 1.202 1.627 1.826 2.42 3.673 4.672 5.838 4.758 9.395.109 4.053-5.295 7.966-10.695 11.901-16.08 2.88-3.941 5.717-4.066 8.667-.084 5.65 7.633 11.516 15.115 16.928 22.914 3.691 5.32 8.252 7.99 14.791 7.525 4.023-.283 8.084-.055 12.127-.033 1.631.008 3.439-.02 4.275 1.652 1.049 2.09-.633 3.426-1.895 4.656-11.4 11.117-24.971 17.654-40.883 19.16-2.412.23-4.835.353-6.484.47z"/>
    <path d="M443.814.955c41.614-.08 73.428 37.316 66.67 78.486-.402 2.449 0 5.941-2.939 6.826-3.256.979-4.18-2.557-5.645-4.541-4.691-6.344-9.164-12.852-13.842-19.205-4.201-5.701-8.359-5.715-12.588-.129-2.318 3.064-4.416 6.295-6.777 9.328-4.15 5.334-8.113 5.352-12.154-.189-8.227-11.277-16.259-22.697-24.382-34.051-5.511-7.707-9.076-7.676-14.7.178-10.486 14.641-20.912 29.322-31.45 43.924-1.445 2.004-2.338 5.486-5.583 4.713-3.137-.748-2.661-4.275-3.069-6.68-6.963-41.043 24.801-78.578 66.459-78.66z"/>
  </g>
</svg>
